:SAMPLES-PER-SECOND 30
:FULLY-SPECIFIED
:DEGREES
367
root  -13.5863 46.4535 45.6651 -54.6877 -77.5908 51.5006
RightUpLeg  -22.2459 -20.0188 -1.85288
RightLeg  53.1927 10.8549 -8.38262
RightFoot  7.41019 1.28042 -7.21902
RightToes  -5.82073e-011 -3.18055e-015 -2.98177e-016
Spine  18.9297 1.15609 1.83638
Spine1  10.1825 6.96033 -22.2456
HEad  -2.42982 6.82109 -14.7367
LeftShoulder1  -3.88251e-019 9.70628e-020 -3.87848e-018
LeftArm  37.1097 35.7054 27.7346
LeftForeArm  -14.6859 -22.1636 -0.951246
LeftHand  -1.59881 -4.1984 20.3308
RightShoulder  3.04409 7.32885 15.7089
RightArm  19.6073 -39.6494 -41.6211
RightForeArm  -48.4186 56.4342 -38.0701
RightHand  -2.50785 4.79572 -27.8415
LeftUpLeg  -50.6243 -0.0426601 12.963
LeftLeg  50.0298 -7.23933 9.20597
LeftFoot  9.63964 0.518148 -2.44443
LeftToes  1.2018e-011 -3.94675e-011 -1.33631e-011
368
root  -15.0077 45.7851 47.2142 -56.7978 -78.6723 53.6493
RightUpLeg  -25.0341 -19.954 2.42952
RightLeg  48.3713 10.4393 -7.7083
RightFoot  7.48223 1.05444 -5.96728
RightToes  -5.82073e-011 -3.18055e-015 -2.98177e-016
Spine  18.6706 0.522431 0.762615
Spine1  10.7877 5.88517 -20.2982
HEad  -2.74639 9.27102 -15.6727
LeftShoulder1  -3.88251e-019 9.70628e-020 -3.87848e-018
LeftArm  36.961 40.3917 29.0847
LeftForeArm  -16.9258 -22.1089 -0.296635
LeftHand  -1.44078 -3.32295 20.1505
RightShoulder  3.28468 7.51097 17.0168
RightArm  21.5917 -42.0274 -43.2949
RightForeArm  -42.6413 52.5326 -32.6623
RightHand  -2.21757 3.87508 -27.0742
LeftUpLeg  -45.9322 -1.26609 12.381
LeftLeg  45.2794 -6.44059 8.7893
LeftFoot  12.8037 0.832383 -3.46765
LeftToes  1.2018e-011 -3.94675e-011 -1.33631e-011
369
root  -16.4849 44.7629 48.7928 -58.9178 -79.3239 56.1947
RightUpLeg  -27.2902 -19.2802 5.81762
RightLeg  41.9118 11.4774 -5.24513
RightFoot  9.39346 0.810222 -4.2985
RightToes  -5.82073e-011 -3.18055e-015 -2.98177e-016
Spine  17.891 -0.0261556 -0.405797
Spine1  10.9933 4.75443 -18.5038
HEad  -2.10768 11.3413 -15.9225
LeftShoulder1  -3.88251e-019 9.70628e-020 -3.87848e-018
LeftArm  39.132 45.0785 29.4688
LeftForeArm  -18.3377 -23.1328 0.827899
LeftHand  -1.69767 -4.23872 21.3808
RightShoulder  3.61043 7.69324 18.8515
RightArm  23.048 -45.1496 -44.798
RightForeArm  -41.7949 50.3219 -29.9603
RightHand  -2.12144 3.47304 -27.052
LeftUpLeg  -41.5499 -1.7289 10.5787
LeftLeg  40.0018 -5.92167 7.92339
LeftFoot  15.4055 1.35218 -5.14551
LeftToes  1.2018e-011 -3.94675e-011 -1.33631e-011
370
root  -18.0759 43.3223 50.392 -59.3477 -79.6006 57.0043
RightUpLeg  -28.0983 -19.6191 8.59355
RightLeg  33.4161 12.922 -3.00371
RightFoot  13.8224 0.932137 -4.02383
RightToes  -5.82073e-011 -3.18055e-015 -2.98177e-016
Spine  16.2398 -0.395245 -1.80162
Spine1  11.688 3.58407 -15.8644
HEad  -1.57569 12.5009 -16.1454
LeftShoulder1  -3.88251e-019 9.70628e-020 -3.87848e-018
LeftArm  40.1888 49.5225 27.8928
LeftForeArm  -19.5849 -23.6174 1.32889
LeftHand  -1.73432 -4.5909 21.0141
RightShoulder  3.89915 7.74508 20.6373
RightArm  24.0149 -48.8826 -45.8079
RightForeArm  -43.3212 49.8987 -29.3464
RightHand  -2.21849 3.35228 -28.6358
LeftUpLeg  -37.4401 -1.023 7.92232
LeftLeg  34.5704 -6.73953 6.09953
LeftFoot  18.1818 2.38214 -8.26964
LeftToes  1.2018e-011 -3.94675e-011 -1.33631e-011
371
root  -19.8087 41.3392 52.0598 -56.6243 -79.7037 53.6983
RightUpLeg  -26.588 -21.894 10.7237
RightLeg  26.2469 13.3905 -2.15728
RightFoot  15.0414 1.85614 -7.74939
RightToes  -5.82073e-011 -3.18055e-015 -2.98177e-016
Spine  14.6997 -1.05316 -2.64666
Spine1  12.1183 2.02833 -12.8076
HEad  -1.6412 13.3895 -17.3455
LeftShoulder1  -3.88251e-019 9.70628e-020 -3.87848e-018
LeftArm  41.7125 53.7978 25.8815
LeftForeArm  -22.9376 -24.3418 1.71295
LeftHand  -1.41006 -3.99853 18.2935
RightShoulder  4.12382 7.8132 21.9519
RightArm  25.0345 -52.3283 -46.8389
RightForeArm  -45.5192 50.4493 -29.8188
RightHand  -2.03496 2.67849 -28.3575
LeftUpLeg  -32.3177 -1.42991 6.07248
LeftLeg  29.0855 -10.2699 2.95769
LeftFoot  19.7851 3.96159 -13.2197
LeftToes  1.2018e-011 -3.94675e-011 -1.33631e-011
372
root  -21.532 38.9215 53.8728 -53.0853 -80.2202 49.2198
RightUpLeg  -26.2209 -22.5602 11.4776
RightLeg  28.1201 10.7072 -4.12392
RightFoot  5.4549 2.30212 -14.5236
RightToes  -5.82073e-011 -3.18055e-015 -2.98177e-016
Spine  14.1331 -1.98308 -1.28534
Spine1  10.7777 0.476353 -10.6936
HEad  -1.53693 14.2832 -18.0617
LeftShoulder1  -3.88251e-019 9.70628e-020 -3.87848e-018
LeftArm  43.7866 57.8709 23.2597
LeftForeArm  -26.8731 -25.7929 2.55673
LeftHand  -1.22502 -4.04782 15.9108
RightShoulder  4.35529 7.95982 23.1331
RightArm  26.1509 -55.5585 -49.4867
RightForeArm  -48.7446 51.9354 -31.3532
RightHand  -1.68032 2.01737 -25.687
LeftUpLeg  -27.6529 -6.11946 6.42441
LeftLeg  26.4165 -14.5594 0.266596
LeftFoot  15.2729 4.66221 -18.2322
LeftToes  1.2018e-011 -3.94675e-011 -1.33631e-011
373
root  -22.9644 36.4194 55.7433 -52.2542 -80.9268 48.6481
RightUpLeg  -30.5939 -18.7731 10.2526
RightLeg  40.157 5.65993 -10.6075
RightFoot  -10.9682 0.479509 -17.7306
RightToes  -5.82073e-011 -3.18055e-015 -2.98177e-016
Spine  14.0445 -2.44764 0.815286
Spine1  8.80281 -0.285414 -9.36357
HEad  -3.37745 12.9167 -17.0578
LeftShoulder1  -3.88251e-019 9.70628e-020 -3.87848e-018
LeftArm  37.319 61.8915 13.3071
LeftForeArm  -26.3447 -25.9787 2.8034
LeftHand  -1.41644 -4.89741 16.715
RightShoulder  4.6134 8.03512 24.6008
RightArm  25.0835 -60.0782 -51.063
RightForeArm  -53.6929 54.2935 -34.1881
RightHand  -1.73638 1.80845 -27.0515
LeftUpLeg  -28.3463 -13.2358 7.05138
LeftLeg  32.4102 -15.3799 -0.381811
LeftFoot  2.45792 2.71441 -19.1704
LeftToes  1.2018e-011 -3.94675e-011 -1.33631e-011
